<?xml version="1.0" encoding="UTF-8"?>
<svg width="33px" height="19px" viewBox="0 0 33 19" version="1.1" xmlns="http://www.w3.org/2000/svg" xmlns:xlink="http://www.w3.org/1999/xlink">
    <!-- Generator: Sketch 47.1 (45422) - http://www.bohemiancoding.com/sketch -->
    <title>Shape</title>
    <desc>Created with Sketch.</desc>
    <defs>
        <filter x="-0.3%" y="-0.1%" width="100.4%" height="100.2%" filterUnits="objectBoundingBox" id="filter-1">
            <feOffset dx="0" dy="0" in="SourceAlpha" result="shadowOffsetOuter1"></feOffset>
            <feGaussianBlur stdDeviation="0.5" in="shadowOffsetOuter1" result="shadowBlurOuter1"></feGaussianBlur>
            <feColorMatrix values="0 0 0 0 0.874758482   0 0 0 0 0.91678103   0 0 0 0 0.937792304  0 0 0 1 0" type="matrix" in="shadowBlurOuter1" result="shadowMatrixOuter1"></feColorMatrix>
            <feMerge>
                <feMergeNode in="shadowMatrixOuter1"></feMergeNode>
                <feMergeNode in="SourceGraphic"></feMergeNode>
            </feMerge>
        </filter>
    </defs>
    <g id="Page-1" stroke="none" stroke-width="1" fill="none" fill-rule="evenodd">
        <g id="Manage-Ads---Campaigns-|-demographics" transform="translate(-844.000000, -575.000000)" fill-rule="nonzero" fill="#FFC154">
            <g id="Manage-Ads" filter="url(#filter-1)" transform="translate(130.000000, 240.000000)">
                <g id="Campaigns">
                    <g id="Analytics">
                        <g id="2" transform="translate(467.000000, 110.000000)">
                            <g id="type-1" transform="translate(230.000000, 226.000000)">
                                <g id="motorcycle-of-big-size-black-silhouette" transform="translate(18.000000, 0.000000)">
                                    <path d="M5.09948006,7.00016073 C2.28308385,7.00016073 0,9.23858309 0,12.0004057 C0,14.7613825 2.28308385,17 5.09948006,17 C7.15582155,17 8.92397398,15.8037589 9.73047869,14.0841176 L10.9420274,15.0000191 C10.9420274,15.0000191 19.8450325,15.0623457 20.3340847,14.7914398 C20.3340847,14.7914398 19.2292382,11.8332689 20.6316301,10.5828986 C20.7792747,10.4512191 20.9648093,10.3010628 21.1688575,10.1419933 C20.9337542,10.7163999 20.8016371,11.3423332 20.8016371,11.9999502 C20.8016371,14.7614475 23.0845219,16.9994795 25.9009181,16.9994795 C28.7173143,16.9994795 31,14.7604716 31,11.9999502 C31,9.23812768 28.7167834,7.00022579 25.9009181,7.00022579 C25.8546672,7.00022579 25.8105397,7.00595099 25.7644878,7.00686182 C26.1328363,6.77245399 26.3678733,6.62529037 26.3678733,6.62529037 L25.9854571,6.29173252 C25.9854571,6.29173252 27.0903699,6.04210087 26.8358902,5.50015882 C26.5805479,4.95821677 23.9035681,1.70851623 23.9035681,1.70851623 C23.9035681,1.70851623 24.3777562,0.708363152 23.3969977,0 L22.9259947,1.00002296 C22.9259947,1.00002296 21.7253949,0.187500239 21.2474907,0.343967302 C20.7693875,0.499978951 20.0527304,0.578375131 19.8288414,0.921952078 L19.6060141,1.12519661 C19.6060141,1.12519661 19.5429748,1.48484315 19.908669,2.01605046 C19.908669,2.01605046 23.590296,3.1253076 23.7652798,3.9377002 C23.7652798,3.9377002 24.0206221,4.4538138 22.9206861,4.57814168 L22.6981242,4.85971734 L22.1078111,4.89088063 L21.0406555,2.50008993 C21.0406555,2.50008993 20.0200163,2.76566106 19.4946005,3.17169471 L19.5742954,3.57766331 C19.5742954,3.57766331 15.2876903,0.718772603 11.2556313,4.95281687 C11.2556313,4.95281687 8.27559834,5.79637277 6.18793627,3.20292307 C6.18793627,3.20292307 6.1561512,2.35923705 1.12044035,2.51557399 L1.47120421,2.87496029 C1.47120421,2.87496029 1.12044035,2.90612359 0.977241641,3.12485218 C0.834042927,3.34332054 1.05687021,3.57772837 2.20445064,3.57772837 C2.20445064,3.57772837 4.80253185,6.4837869 6.7943742,6.31229119 L9.63067755,7.65615134 L10.8898043,9.76536638 C10.8898043,9.76536638 10.8920605,9.94655589 10.9050665,10.2237075 C10.6128296,10.2847329 10.2852244,10.3524594 9.93764569,10.4247401 C9.26378891,8.43607946 7.35449484,7.00016073 5.09948006,7.00016073 Z M25.9008517,8.53230183 C27.8514199,8.53230183 29.4376211,10.0879943 29.4376211,11.9998852 C29.4376211,13.9119713 27.8508891,15.4671433 25.9008517,15.4671433 C23.9503499,15.4671433 22.3644142,13.9114508 22.3644142,11.9998852 C22.3644142,10.0879943 23.9504162,8.53230183 25.9008517,8.53230183 Z M5.09948006,15.4677288 C3.14944271,15.4677288 1.56271071,13.9119713 1.56271071,12.0004057 C1.56271071,10.0879943 3.14944271,8.5328223 5.09948006,8.5328223 C6.59862063,8.5328223 7.87957891,9.45366837 8.39318319,10.747368 C6.51793034,11.138438 4.65661249,11.5274262 4.65661249,11.5274262 L4.89675899,12.8242487 L8.56889691,12.6652443 C8.25250605,14.259777 6.81786463,15.4677288 5.09948006,15.4677288 Z M11.2244434,12.5499596 C11.3286905,12.8969847 11.4645899,13.1728352 11.6432897,13.2912427 L10.0045337,13.3540897 C10.0747395,13.1079713 10.1277589,12.8553469 10.1596767,12.5953709 L11.2244434,12.5499596 Z" id="Shape"></path>
                                </g>
                            </g>
                        </g>
                    </g>
                </g>
            </g>
        </g>
    </g>
</svg>