<?xml version="1.0" encoding="UTF-8"?>
<svg width="46px" height="15px" viewBox="0 0 46 15" version="1.1" xmlns="http://www.w3.org/2000/svg" xmlns:xlink="http://www.w3.org/1999/xlink">
    <!-- Generator: Sketch 47.1 (45422) - http://www.bohemiancoding.com/sketch -->
    <title>over-wheels-transport</title>
    <desc>Created with Sketch.</desc>
    <defs>
        <filter x="-0.3%" y="-0.1%" width="100.4%" height="100.2%" filterUnits="objectBoundingBox" id="filter-1">
            <feOffset dx="0" dy="0" in="SourceAlpha" result="shadowOffsetOuter1"></feOffset>
            <feGaussianBlur stdDeviation="0.5" in="shadowOffsetOuter1" result="shadowBlurOuter1"></feGaussianBlur>
            <feColorMatrix values="0 0 0 0 0.874758482   0 0 0 0 0.91678103   0 0 0 0 0.937792304  0 0 0 1 0" type="matrix" in="shadowBlurOuter1" result="shadowMatrixOuter1"></feColorMatrix>
            <feMerge>
                <feMergeNode in="shadowMatrixOuter1"></feMergeNode>
                <feMergeNode in="SourceGraphic"></feMergeNode>
            </feMerge>
        </filter>
    </defs>
    <g id="Page-1" stroke="none" stroke-width="1" fill="none" fill-rule="evenodd">
        <g id="Manage-Ads---Campaigns-|-demographics" transform="translate(-637.000000, -579.000000)" fill-rule="nonzero" fill="#61E7FF">
            <g id="Manage-Ads" filter="url(#filter-1)" transform="translate(130.000000, 240.000000)">
                <g id="Campaigns">
                    <g id="Analytics">
                        <g id="2" transform="translate(467.000000, 110.000000)">
                            <g id="type-1" transform="translate(30.000000, 230.000000)">
                                <g id="over-wheels-transport" transform="translate(11.000000, 0.000000)">
                                    <path d="M0.8812691,10.7411593 C1.7625382,10.9479041 2.90813484,11 2.90813484,11 L3.21009051,11 C2.94323669,10.5387462 2.79046388,10.0191918 2.79046388,9.46744325 C2.79046388,7.59561911 4.51989466,6.07277913 6.6463486,6.07277913 C8.77240365,6.07277913 10.5019674,7.59561911 10.5019674,9.46744325 C10.5019674,10.016148 10.3497264,10.5338293 10.0861966,10.993327 L30.8280642,10.8588142 C30.6097414,10.4331495 30.4851564,9.9634667 30.4851564,9.46744325 C30.4851564,7.59561911 32.2147201,6.07277913 34.3407752,6.07277913 C36.4668303,6.07277913 38.196261,7.59561911 38.196261,9.46744325 C38.196261,9.85435793 38.1191433,10.2246487 37.9828578,10.572111 C39.9106671,10.3254456 42.5882467,9.95679374 43.2195481,9.73916155 C44.2337787,9.39052859 43.9687864,6.55779805 43.9687864,6.55779805 C43.9687864,6.55779805 43.1315275,6.38383278 43.1315275,5.6657285 C43.1315275,4.94739009 43.1315275,3.72588698 43.1315275,3.72588698 C43.1315275,3.72588698 42.3824222,3.72588698 42.8003203,3.35700101 C43.2183514,2.98811503 42.1166321,3.02756745 42.1166321,3.02756745 C42.1166321,3.02756745 39.803899,3.62895344 38.4152487,2.81391562 C37.0273961,1.99887781 31.8278021,0.524621667 31.8278021,0.524621667 L31.8278021,0.050256077 C30.9244613,-0.113407076 30.0652639,0.175052158 30.0652639,0.175052158 C26.4741056,-0.116216744 23.0815918,0.175052158 21.0766647,0.311203979 C19.0713388,0.447004593 14.2689008,3.00754857 13.5858774,3.3762004 C12.902588,3.74508638 11.6619239,3.8616876 9.07728447,3.8616876 C6.49198025,3.8616876 5.5226906,4.56000713 5.5226906,4.56000713 C0.235076006,5.62030554 0.822367137,6.75833809 0.440900473,7.27543404 C0.0585030784,7.79264707 0,10.275691 0,10.275691 C1.08642876,10.353191 0.8812691,10.7411593 0.8812691,10.7411593 Z" id="Shape"></path>
                                    <path d="M7.0001899,7 C5.34336294,7 4,8.34334972 4,9.99993669 C4,10.6129904 4.18585023,11.1821098 4.50146646,11.6574099 C5.0390142,12.4658254 5.95611166,13 7.0000633,13 C8.04439474,13 8.96212521,12.4650657 9.49903994,11.6560172 C9.81402317,11.1814767 10,10.6129904 10,10.0006964 C9.999367,8.34334972 8.65676366,7 7.0001899,7 Z" id="Shape"></path>
                                    <path d="M35.0000633,7 C33.3436425,7 32,8.34346312 32,10.0001899 C32,10.5490978 32.1587308,11.0566002 32.4155609,11.4991453 C32.9352967,12.3922127 33.8916057,13 35.0000633,13 C36.1870003,13 37.2016624,12.3049699 37.6886142,11.305793 C37.8812683,10.9090852 38,10.4703387 38,9.99968344 C38,8.34346312 36.6562309,7 35.0000633,7 Z" id="Shape"></path>
                                </g>
                            </g>
                        </g>
                    </g>
                </g>
            </g>
        </g>
    </g>
</svg>