<?xml version="1.0" encoding="UTF-8"?>
<svg width="27px" height="23px" viewBox="0 0 27 23" version="1.1" xmlns="http://www.w3.org/2000/svg" xmlns:xlink="http://www.w3.org/1999/xlink">
    <!-- Generator: Sketch 47.1 (45422) - http://www.bohemiancoding.com/sketch -->
    <title>Shape</title>
    <desc>Created with Sketch.</desc>
    <defs>
        <filter x="-0.3%" y="-0.1%" width="100.4%" height="100.2%" filterUnits="objectBoundingBox" id="filter-1">
            <feOffset dx="0" dy="0" in="SourceAlpha" result="shadowOffsetOuter1"></feOffset>
            <feGaussianBlur stdDeviation="0.5" in="shadowOffsetOuter1" result="shadowBlurOuter1"></feGaussianBlur>
            <feColorMatrix values="0 0 0 0 0.874758482   0 0 0 0 0.91678103   0 0 0 0 0.937792304  0 0 0 1 0" type="matrix" in="shadowBlurOuter1" result="shadowMatrixOuter1"></feColorMatrix>
            <feMerge>
                <feMergeNode in="shadowMatrixOuter1"></feMergeNode>
                <feMergeNode in="SourceGraphic"></feMergeNode>
            </feMerge>
        </filter>
    </defs>
    <g id="Page-1" stroke="none" stroke-width="1" fill="none" fill-rule="evenodd">
        <g id="Manage-Ads---Campaigns-|-demographics" transform="translate(-156.000000, -350.000000)" fill-rule="nonzero" fill="#00B7FF">
            <g id="Manage-Ads" filter="url(#filter-1)" transform="translate(130.000000, 240.000000)">
                <g id="Campaigns">
                    <g id="Analytics">
                        <g id="Group">
                            <g id="2" transform="translate(0.000000, 111.000000)">
                                <g id="google132" transform="translate(39.500000, 10.500000) scale(-1, 1) rotate(-90.000000) translate(-39.500000, -10.500000) translate(29.000000, -2.000000)">
                                    <path d="M13.2223858,11.1590373 C15.6839242,11.1590373 17.5662772,9.2766844 17.5662772,6.81514594 C17.5662772,4.35360748 15.6839242,2.47125454 13.2223858,2.47125454 C12.7879966,2.47125454 12.3536075,2.61605092 11.9192183,2.61605092 C12.7879966,3.91921834 13.2223858,5.22238576 13.2223858,6.81514594 C13.2223858,8.40790612 12.7879966,9.71107354 11.9192183,11.014241 C12.3536075,11.014241 12.7879966,11.1590373 13.2223858,11.1590373 Z M7.15903734,11.1590373 C9.6205758,11.1590373 11.5029287,9.2766844 11.5029287,6.81514594 C11.5029287,4.35360748 9.6205758,2.47125454 7.15903734,2.47125454 C4.69749888,2.47125454 2.81514594,4.35360748 2.81514594,6.81514594 C2.81514594,9.2766844 4.69749888,11.1590373 7.15903734,11.1590373 Z M15.5391278,14.3445577 C16.6974989,15.3581324 17.5662772,16.8060962 17.5662772,18.3988563 L17.5662772,22.4712545 L21.9101686,22.4712545 L21.9101686,18.3988563 C21.9101686,16.2269106 18.4350554,14.7789468 15.5391278,14.3445577 Z M7.15903734,14.0549649 C4.26310974,14.0549649 -1.52874546,15.5029287 -1.52874546,18.3988563 L-1.52874546,22.4712545 L15.8468201,22.4712545 L15.8468201,18.3988563 C15.8468201,15.5029287 10.0549649,14.0549649 7.15903734,14.0549649 Z" id="Shape" transform="translate(10.190712, 12.471255) rotate(-270.000000) translate(-10.190712, -12.471255) "></path>
                                </g>
                            </g>
                        </g>
                    </g>
                </g>
            </g>
        </g>
    </g>
</svg>